<?xml version="1.0" encoding="iso-8859-1"?>
<!-- Generator: Adobe Illustrator 19.2.0, SVG Export Plug-In . SVG Version: 6.00 Build 0)  -->
<svg version="1.1" id="Layer_1" xmlns="http://www.w3.org/2000/svg" xmlns:xlink="http://www.w3.org/1999/xlink" x="0px" y="0px"
	 viewBox="0 0 150 50" style="enable-background:new 0 0 150 50;" xml:space="preserve">
<rect style="fill:transparent;" width="50" height="50"/>
<rect x="50" style="fill:transparent;" width="50" height="50"/>
<rect x="100" style="fill:transparent;" width="50" height="50"/>
<g id="car_2_">
	<path style="fill-rule:evenodd;clip-rule:evenodd;fill:#231F20;" d="M48.482,24.39c0-0.449-0.488-0.907-0.488-1.356v-1.647
		c-2.424,0.15-5.659-0.804-8.69-2.301c-1.969-1.048-4.848-1.497-6.969-1.647h-7.574c-3.333,0.299-7.272,3.294-10.756,4.342
		c-1.515,0.45-2.67,0.536-4.469,0.536c-2.126,0-4.446,0.662-6.87,1.71c-0.757,0.3-0.303,1.497-0.606,1.946
		C1.757,26.422,1,26.722,1,27.171c0,0.3,0.505,1.855,0.808,2.753c0.272,0.606,1.217,0.671,1.726,0.674
		c-0.062-0.311-0.095-0.634-0.095-0.963c0-2.694,2.184-4.878,4.878-4.878c0.171,0,0.339,0.01,0.505,0.027
		c1.36,0.072,2.492,0.736,3.227,1.71c0.715,0.849,1.146,1.945,1.146,3.142c0,0.51-0.079,1.001-0.224,1.463l19.535-0.015
		c0.506-0.031,1.391-0.013,2.077-0.009c-0.141-0.455-0.217-0.938-0.217-1.439c0-2.694,2.184-4.878,4.878-4.878
		c0.172,0,0.34,0.01,0.507,0.027c1.612,0.076,2.62,0.772,3.232,1.717c0.711,0.848,1.139,1.941,1.139,3.135
		c0,0.136-0.006,0.272-0.017,0.405c0.573,0.042,1.343,0.052,1.343,0.052c2.878-0.3,3.552-1.124,3.552-3.22v-0.449
		C49,25.374,48.482,25.438,48.482,24.39z M28.759,22.805h-9.579c0.152-0.156,0.536-0.579,0.536-0.892
		c0-0.469-0.206-0.564-0.495-0.564l-0.937-0.008c4.865-2.812,5.154-2.91,9.107-2.91c0.304,0,2.585-0.156,2.585,0.469
		C29.976,19.213,29.215,21.555,28.759,22.805z M38.629,22.805h-7.678v-1.756c0-0.353,0.069-1.024,0.208-1.693
		c0.11-0.527,0.686-0.881,1.214-0.775c2.26,0.452,6.871,1.686,6.871,3.17C39.244,22.278,38.937,22.629,38.629,22.805z M8.317,25.732
		c-1.886,0-3.415,1.529-3.415,3.415c0,1.886,1.529,3.415,3.415,3.415c1.886,0,3.415-1.529,3.415-3.415
		C11.732,27.26,10.203,25.732,8.317,25.732z M39.244,25.732c-1.886,0-3.415,1.529-3.415,3.415c0,1.886,1.529,3.415,3.415,3.415
		c1.886,0,3.415-1.529,3.415-3.415C42.659,27.26,41.13,25.732,39.244,25.732z"/>
</g>
<g>
	<path style="fill:#231F20;" d="M81.594,40.035H68.406c-1.093,0-1.978-0.886-1.978-1.978V11.944c0-1.092,0.885-1.978,1.978-1.978
		h13.188c1.092,0,1.978,0.886,1.978,1.978v26.113C83.572,39.149,82.686,40.035,81.594,40.035z"/>
	<circle style="fill:#FFFFFF;" cx="75" cy="37.856" r="1.306"/>
	<path style="fill:#FFFFFF;" d="M78.398,12.062h-6.797c-0.18,0-0.327-0.146-0.327-0.327c0-0.181,0.146-0.327,0.327-0.327h6.797
		c0.18,0,0.327,0.146,0.327,0.327C78.725,11.916,78.579,12.062,78.398,12.062z"/>
	<rect x="68.028" y="13.223" style="fill:#FFFFFF;" width="13.944" height="22.348"/>
</g>
<path style="fill-rule:evenodd;clip-rule:evenodd;fill:#231F20;" d="M123.564,32.933c-0.319,0-0.577,0.141-0.761,0.346
	c-0.239,0.265-0.293,0.575-0.226,0.922l0.308,1.606c0.053,0.276,0.218,0.5,0.455,0.603l-0.88,2.615l-3.403-7.689l-6.772,2.423
	c-1.475,0.65-2.729,2.089-2.729,3.819v0.673v0.541c0,0.684,0.56,1.244,1.244,1.244h28.397c0.684,0,1.244-0.56,1.244-1.244V38.25
	v-0.673c0-1.73-1.253-3.169-2.729-3.819l-6.772-2.423l-3.402,7.689l-0.88-2.615c0.237-0.103,0.402-0.327,0.455-0.603l0.308-1.606
	c0.067-0.346,0.012-0.657-0.226-0.922c-0.185-0.205-0.442-0.346-0.762-0.346H123.564L123.564,32.933z M116.156,19.874
	c0.004-0.562,0.005-1.544,0.018-1.646c0.587-4.985,3.064-8.273,8.701-8.263c1.793,0.003,3.329,0.263,4.556,0.863
	c2.632,1.285,3.986,3.916,4.397,7.4c0.012,0.102,0.013,1.089,0.017,1.65c0.738,1.167,0.771,2.799,0.373,4.12
	c-0.319,1.062-0.994,2.118-2.008,2.629c-2.066,6.699-12.376,6.603-14.415,0.001c-0.22-0.11-0.424-0.25-0.612-0.408
	c-1.067-0.896-1.587-2.325-1.636-3.693C115.513,21.648,115.666,20.637,116.156,19.874L116.156,19.874z M131.863,20.081
	c-0.858-0.972-0.44-3.653-2.4-4.223c-1.528-0.444-2.065,0.657-4.448,0.653c-2.383-0.005-2.92-1.097-4.448-0.653
	c-1.961,0.57-1.573,3.25-2.43,4.223c-0.143,0.162-0.495,0.092-0.702,0.282c-0.497,0.455-0.585,1.48-0.562,2.117
	c0.035,0.996,0.388,2.074,1.162,2.724c0.256,0.216,0.541,0.31,0.854,0.42c0.064,0.229,0.126,0.459,0.203,0.684
	c1.803,5.212,9.805,5.345,11.756,0.168c0.106-0.282,0.184-0.572,0.267-0.862c0.208-0.068,0.423-0.125,0.615-0.234
	c0.615-0.351,1.016-1.115,1.21-1.762c0.293-0.974,0.317-2.215-0.245-3.064C132.433,20.157,132.071,20.317,131.863,20.081
	L131.863,20.081z"/>
</svg>
