<?xml version="1.0" encoding="utf-8"?>
<!-- Generator: Adobe Illustrator 19.2.0, SVG Export Plug-In . SVG Version: 6.00 Build 0)  -->
<svg version="1.1" id="Layer_1" xmlns="http://www.w3.org/2000/svg" xmlns:xlink="http://www.w3.org/1999/xlink" x="0px" y="0px"
	 viewBox="0 0 296.5 98" style="enable-background:new 0 0 296.5 98;" xml:space="preserve">
<style type="text/css">
	.st0{fill:#FFFFFF;}
</style>
<g>
	<g>
		<g>
			<path class="st0" d="M13.6,32.8v18.3H0V0.7h16.4c13.6,0,20.4,5,20.4,14.9c0,5.8-2.8,10.3-8.5,13.5L43,51.1H27.6L17,32.8H13.6z
				 M13.6,22.5h2.5c4.7,0,7.1-2.1,7.1-6.3c0-3.5-2.3-5.2-7-5.2h-2.7V22.5z"/>
		</g>
		<g>
			<path class="st0" d="M45.1,45.4c0-2.1,0.6-3.7,1.9-4.9c1.2-1.1,3.1-1.7,5.4-1.7c2.3,0,4,0.6,5.2,1.7c1.2,1.1,1.8,2.8,1.8,4.9
				c0,2.1-0.6,3.7-1.9,4.8c-1.2,1.2-3,1.7-5.2,1.7c-2.3,0-4-0.6-5.4-1.7C45.7,49.1,45.1,47.5,45.1,45.4z"/>
		</g>
		<g>
			<path class="st0" d="M81.4,32.8v18.3H67.9V0.7h16.4c13.6,0,20.4,5,20.4,14.9c0,5.8-2.8,10.3-8.5,13.5l14.6,21.9H95.5L84.8,32.8
				H81.4z M81.4,22.5H84c4.7,0,7.1-2.1,7.1-6.3c0-3.5-2.3-5.2-7-5.2h-2.7V22.5z"/>
		</g>
		<g>
			<path class="st0" d="M112.9,45.4c0-2.1,0.6-3.7,1.9-4.9c1.2-1.1,3.1-1.7,5.4-1.7c2.3,0,4,0.6,5.2,1.7c1.2,1.1,1.8,2.8,1.8,4.9
				c0,2.1-0.6,3.7-1.9,4.8c-1.2,1.2-3,1.7-5.2,1.7c-2.3,0-4-0.6-5.4-1.7C113.6,49.1,112.9,47.5,112.9,45.4z"/>
		</g>
		<g>
			<path class="st0" d="M166.5,51.1l-2.5-9.4h-16.3l-2.5,9.4h-14.9l16.4-50.6h18.1l16.6,50.6H166.5z M161.2,30.5l-2.2-8.3
				c-0.5-1.8-1.1-4.2-1.8-7.1c-0.7-2.9-1.2-5-1.4-6.3c-0.2,1.2-0.6,3.1-1.2,5.8c-0.6,2.7-1.9,8-4,15.9H161.2z"/>
		</g>
		<g>
			<path class="st0" d="M208.6,51.1l-10.3-36.3H198c0.5,6.2,0.7,11,0.7,14.4v21.9h-12V0.7h18l10.5,35.8h0.3l10.3-35.8h18.1v50.4
				h-12.5V29c0-1.1,0-2.4,0.1-3.8c0-1.4,0.2-4.8,0.5-10.3h-0.3l-10.1,36.2H208.6z"/>
		</g>
		<g>
			<path class="st0" d="M274.8,21.6h21.6v27.1c-5.9,2-12.3,3-19.4,3c-7.7,0-13.7-2.3-17.9-6.8c-4.2-4.5-6.3-10.9-6.3-19.3
				c0-8.1,2.3-14.5,6.9-19c4.6-4.5,11.1-6.8,19.4-6.8c3.2,0,6.1,0.3,8.9,0.9c2.8,0.6,5.2,1.4,7.3,2.3l-4.3,10.7
				c-3.6-1.8-7.6-2.7-11.9-2.7c-4,0-7,1.3-9.2,3.9c-2.2,2.6-3.2,6.3-3.2,11.1c0,4.7,1,8.3,2.9,10.8c2,2.5,4.8,3.7,8.5,3.7
				c2,0,3.9-0.2,5.6-0.6v-7.9h-9V21.6z"/>
		</g>
	</g>
	<g>
		<g>
			<path class="st0" d="M8.8,70.4c2.4,0,4.2,0.3,5.4,0.9c0.6,0.3,1.1,0.7,1.5,1.1s0.7,0.9,0.9,1.5c0.2,0.6,0.4,1.2,0.4,1.8
				c0.1,0.6,0.1,1.3,0.1,2.1v12.6h-5.9V77.9c0-2-1-2.9-3-2.9c-1.8,0-3.9,0.1-6.3,0.4l-1.3,0.1V71C3,70.6,5.8,70.4,8.8,70.4z
				 M6.5,90.5H0.6V78.9h5.9V90.5z"/>
		</g>
		<g>
			<path class="st0" d="M19.9,70.7c2.1-0.2,3.9-0.3,5.5-0.3c1.6,0,2.8,0.1,3.7,0.2c0.9,0.2,1.6,0.4,2.3,0.7s1.1,0.7,1.5,1.1
				c0.4,0.4,0.7,0.9,0.9,1.5c0.2,0.6,0.4,1.2,0.4,1.8c0.1,0.6,0.1,1.3,0.1,2.1v12.6h-5.9V77.9c0-2-1-2.9-3-2.9
				c-1.5,0-3.3,0.1-5.5,0.3V70.7z"/>
		</g>
		<g>
			<path class="st0" d="M52,89.5v0.9h-5.9v-0.9c0-0.8,0.1-1.9,0.4-3.3c0.3-1.4,0.6-2.7,1-3.7l2.7-7.2h-12v-4.6h18.5v3.4l-3.2,8.5
				C52.5,85.2,52,87.5,52,89.5z M44.2,98h-5.9V78.5h5.9V98z"/>
		</g>
		<g>
			<path class="st0" d="M65.3,90.5h-5.9V70.7h5.9V90.5z"/>
		</g>
		<g>
			<path class="st0" d="M69.3,84.1V70.7h5.9v9.2l-3.3,4.2H69.3z"/>
		</g>
		<g>
			<path class="st0" d="M103,71.8c0.4,0.3,0.8,0.7,1,1.1c0.3,0.4,0.5,0.8,0.6,1.4c0.3,0.9,0.4,2,0.4,3.4v12.8h-5.9V77.9
				c0-2-1-2.9-3-2.9c-0.5,0-0.9,0-1.1,0v9.4c0,0.8-0.1,1.4-0.2,2c-0.1,0.6-0.3,1.2-0.6,1.7c-0.3,0.5-0.7,1-1.1,1.4
				c-1,0.8-2.5,1.2-4.5,1.2c-0.4,0-0.9-0.1-1.4-0.2c-0.5-0.1-0.8-0.2-1-0.3l-0.4-0.2v-4.3c0.8,0.1,1.4,0.2,1.9,0.2
				c0.5,0,0.9-0.1,1.1-0.4c0.2-0.2,0.3-0.7,0.3-1.3v-9.1L87,75.5V71c3.4-0.4,6.6-0.6,9.6-0.6S101.8,70.9,103,71.8z"/>
		</g>
		<g>
			<path class="st0" d="M114.9,90.5H109V70.7h5.9V90.5z"/>
		</g>
		<g>
			<path class="st0" d="M118.9,84.1V70.7h5.9v9.2l-3.3,4.2H118.9z"/>
		</g>
		<g>
			<path class="st0" d="M128.6,70.6c0.8-0.2,1.8-0.2,3.1-0.2c1.2,0,2.3,0.1,3,0.4c0.8,0.2,1.4,0.5,1.8,0.9c0.5,0.4,0.8,0.9,1.1,1.5
				s0.5,1.2,0.6,1.8c0.1,0.6,0.2,1.3,0.2,2.1v7.3c0,1-0.1,2-0.2,3c-0.1,1-0.2,1.8-0.3,2.4l-0.2,0.8h-10v-4.6h4.6
				c0.1-0.5,0.2-1,0.2-1.6V77c0-0.5-0.1-1-0.3-1.4c-0.2-0.4-0.6-0.6-1.1-0.6c-0.7,0-1.3,0.1-2.1,0.2l-0.4,0V70.6z"/>
		</g>
		<g>
			<path class="st0" d="M148.4,90.5h-5.9V70.7h5.9V90.5z"/>
		</g>
		<g>
			<path class="st0" d="M157.6,70.4c1.3,0,2.4,0.2,3.4,0.5c1,0.3,1.8,0.8,2.4,1.3c0.6,0.6,1.1,1.2,1.5,2c0.7,1.4,1.1,3.1,1.1,5.1
				v2.5c0,1-0.1,1.9-0.2,2.7c-0.1,0.8-0.4,1.6-0.7,2.4s-0.8,1.5-1.4,2c-0.6,0.5-1.4,1-2.4,1.3c-1,0.3-2.2,0.5-3.5,0.5
				c-2.7,0-4.7-0.1-6.2-0.4v-4.6c1.6,0.2,3.5,0.3,5.6,0.3c1.1,0,1.9-0.4,2.3-1.1s0.7-1.8,0.7-3.1v-2.5c0-0.5,0-1-0.1-1.4
				c0-0.4-0.1-0.8-0.3-1.2c-0.1-0.4-0.3-0.7-0.6-1c-0.6-0.6-1.5-0.8-2.7-0.8c-1.3,0-2.7,0.1-4.2,0.2l-0.7,0.1v-4.6
				C153.2,70.5,155.2,70.4,157.6,70.4z"/>
		</g>
		<g>
			<path class="st0" d="M174,70.7c0.4,0.6,0.6,1.3,0.7,2h0.2c0.2-0.2,0.5-0.5,0.9-0.8c0.4-0.3,0.8-0.6,1.2-0.8s0.9-0.4,1.5-0.6
				s1.4-0.3,2.2-0.3s1.6,0.2,2.4,0.5c0.8,0.3,1.4,0.7,1.9,1.2c0.5,0.5,0.9,1.2,1.2,1.9c0.5,1.4,0.8,3.2,0.8,5.4v11.1h-9.5v-4.6h3.5
				v-6.6c0-1.1-0.1-1.8-0.2-2.3c-0.1-0.5-0.3-0.9-0.4-1.1c-0.4-0.5-1-0.8-1.8-0.8c-0.4,0-0.7,0.1-1,0.2c-0.3,0.1-0.6,0.3-0.8,0.5
				c-0.5,0.4-0.8,0.8-1,1.1l-0.1,0.2l-1.1,13.4h-5.8l1.1-12.5c0.1-0.7,0.1-1.4,0.1-2c0-1.7-0.3-3.5-1-5.3H174z"/>
		</g>
		<g>
			<path class="st0" d="M195.6,70.7h9.9v3.6l-2.6,8.8l0,0l-1.7,7.4h-5.8l1.7-7.6l2.3-7.7h-9.8v-8.5h5.9V70.7z"/>
		</g>
		<g>
			<path class="st0" d="M232.1,71.8c0.4,0.3,0.8,0.7,1,1.1c0.3,0.4,0.5,0.8,0.6,1.4c0.3,0.9,0.4,2,0.4,3.4v12.8h-5.9V77.9
				c0-2-1-2.9-3-2.9c-0.5,0-0.9,0-1.1,0v9.4c0,0.8-0.1,1.4-0.2,2c-0.1,0.6-0.3,1.2-0.6,1.7c-0.3,0.5-0.7,1-1.1,1.4
				c-1,0.8-2.5,1.2-4.5,1.2c-0.4,0-0.9-0.1-1.4-0.2c-0.5-0.1-0.8-0.2-1-0.3l-0.4-0.2v-4.3c0.8,0.1,1.4,0.2,1.9,0.2s0.9-0.1,1.1-0.4
				c0.2-0.2,0.3-0.7,0.3-1.3v-9.1l-2.1,0.2V71c3.4-0.4,6.6-0.6,9.6-0.6S230.9,70.9,232.1,71.8z"/>
		</g>
		<g>
			<path class="st0" d="M244,90.5h-5.9V70.7h5.9V90.5z"/>
		</g>
		<g>
			<path class="st0" d="M246.9,70.7c2.1-0.2,3.9-0.3,5.5-0.3s2.8,0.1,3.7,0.2c0.9,0.2,1.6,0.4,2.3,0.7s1.1,0.7,1.5,1.1
				c0.4,0.4,0.7,0.9,0.9,1.5s0.3,1.2,0.4,1.8c0.1,0.6,0.1,1.3,0.1,2.1v12.6h-5.9V77.9c0-2-1-2.9-3-2.9c-1.5,0-3.3,0.1-5.5,0.3V70.7z
				"/>
		</g>
		<g>
			<path class="st0" d="M265.2,84.1V70.7h5.9v9.2l-3.3,4.2H265.2z"/>
		</g>
		<g>
			<path class="st0" d="M284.5,90.5h-8.6l-1.7-19.8h5.7l0.8,9.2c0.1,0,0.3,0,0.4-0.1c0.2-0.1,0.3-0.2,0.4-0.3
				c0.1-0.1,0.2-0.3,0.3-0.6s0.2-0.6,0.2-1l0.6-7.1h5.7l-0.6,7c-0.1,0.8-0.2,1.6-0.4,2.2c-0.2,0.7-0.5,1.2-0.8,1.6
				c-0.3,0.4-0.7,0.8-1.1,1.1c-0.4,0.3-0.8,0.6-1.2,0.7s-0.8,0.3-1.2,0.4c-0.6,0.1-1.2,0.2-1.9,0.2H281l0.2,1.8h4
				c1.3,0,2.3-0.5,3.2-1.5c0.8-1,1.4-2.6,1.5-4.8l0.8-8.9h5.7l-0.8,9c-0.2,1.7-0.5,3.3-1,4.6c-0.5,1.3-1.1,2.3-1.7,3.1
				s-1.5,1.4-2.4,1.9s-1.9,0.8-2.8,1S285.7,90.5,284.5,90.5z"/>
		</g>
	</g>
	<g>
		<rect x="0" y="58.4" class="st0" width="296.5" height="2"/>
	</g>
</g>
</svg>
