<svg style="position: absolute; width: 0; height: 0;" width="0" height="0" version="1.1" xmlns="http://www.w3.org/2000/svg" xmlns:xlink="http://www.w3.org/1999/xlink">
<defs>
<symbol id="name" viewBox="0 0 1052 1024">
	<path class="path1" d="M477.184 782.336c-11.264 0-19.456 5.12-25.6 12.288-8.192 9.216-10.24 19.456-8.192 31.744l10.24 54.272c2.048 9.216 7.168 17.408 15.36 20.48l-29.696 89.088-115.712-262.144-230.4 81.92c-50.176 22.528-93.184 71.68-93.184 130.048v40.96c0 23.552 19.456 41.984 41.984 41.984h966.656c23.552 0 41.984-19.456 41.984-41.984v-40.96c0-59.392-43.008-107.52-93.184-130.048l-230.4-82.944-114.688 262.144-29.696-89.088c8.192-3.072 13.312-11.264 15.36-20.48l10.24-54.272c2.048-12.288 0-22.528-8.192-31.744-6.144-7.168-15.36-12.288-25.6-12.288h-97.28v1.024zM224.256 337.92c0-19.456 0-52.224 1.024-56.32 20.48-169.984 104.448-281.6 295.936-281.6 61.44 0 113.664 9.216 155.648 29.696 90.112 44.032 136.192 133.12 149.504 251.904 0 3.072 0 36.864 1.024 56.32 25.6 39.936 26.624 95.232 12.288 140.288-11.264 35.84-33.792 71.68-68.608 89.088-70.656 228.352-421.888 225.28-490.496 0-7.168-4.096-14.336-8.192-20.48-14.336-35.84-30.72-54.272-78.848-55.296-125.952-2.048-28.672 3.072-63.488 19.456-89.088v0zM759.808 344.064c-29.696-32.768-15.36-123.904-81.92-143.36-52.224-15.36-70.656 22.528-151.552 22.528s-99.328-36.864-151.552-22.528c-66.56 19.456-53.248 110.592-82.944 143.36-5.12 5.12-16.384 3.072-23.552 9.216-17.408 15.36-19.456 50.176-19.456 71.68 1.024 33.792 13.312 70.656 39.936 93.184 9.216 7.168 18.432 10.24 28.672 14.336 2.048 8.192 4.096 15.36 7.168 23.552 61.44 177.152 333.824 182.272 400.384 6.144 4.096-9.216 6.144-19.456 9.216-29.696 7.168-2.048 14.336-4.096 20.48-8.192 20.48-12.288 34.816-37.888 40.96-60.416 10.24-32.768 11.264-75.776-8.192-104.448-8.192-12.288-20.48-7.168-27.648-15.36v0z"></path>
</symbol>
<symbol id="phone" viewBox="0 0 1019 1024">
	<path class="path1" d="M509.453 0c-280.199 0-509.453 229.254-509.453 512s229.254 512 509.453 512c280.199 0 509.453-229.254 509.453-512s-229.254-512-509.453-512zM644.458 822.766c-43.303-2.547-326.050-71.323-445.771-410.109-22.925-68.776 5.095-183.403 86.607-208.876s124.816 89.154 135.005 160.478l-71.323 71.323c0 0-2.547 45.851 96.796 142.647 96.796 96.796 142.647 96.796 142.647 96.796l84.060-84.060c53.493 10.189 157.93 78.965 157.93 78.965-15.284 99.343-81.512 163.025-185.95 152.836z"></path>
</symbol>
<symbol id="car" viewBox="0 0 3250 1024">
	<path class="path1" d="M3215.36 471.040c0-30.72-32.768-61.44-32.768-92.16v-111.616c-163.84 10.24-382.976-54.272-588.8-155.648-133.12-70.656-328.704-101.376-472.064-111.616h-513.024c-225.28 20.48-492.544 223.232-728.064 293.888-102.4 30.72-181.248 35.84-303.104 35.84-143.36 1.024-301.056 45.056-464.896 116.736-51.2 20.48-20.48 101.376-40.96 132.096s-71.68 50.176-71.68 80.896c0 20.48 33.792 125.952 54.272 186.368 18.432 40.96 81.92 45.056 116.736 46.080-4.096-21.504-6.144-43.008-6.144-65.536 0-182.272 147.456-330.752 330.752-330.752 11.264 0 22.528 1.024 33.792 2.048 92.16 5.12 168.96 50.176 218.112 115.712 48.128 57.344 77.824 132.096 77.824 212.992 0 34.816-5.12 67.584-15.36 99.328l1323.008-1.024c33.792-2.048 94.208-1.024 140.288-1.024-9.216-30.72-14.336-63.488-14.336-97.28 0-182.272 147.456-330.752 330.752-330.752 11.264 0 22.528 1.024 34.816 2.048 109.568 5.12 177.152 52.224 219.136 116.736 48.128 57.344 76.8 131.072 76.8 211.968 0 9.216 0 18.432-1.024 27.648 38.912 3.072 91.136 3.072 91.136 3.072 194.56-20.48 240.64-75.776 240.64-218.112v-30.72c-1.024-70.656-35.84-66.56-35.84-137.216zM1880.064 363.52h-648.192c10.24-10.24 35.84-38.912 35.84-60.416 0-31.744-14.336-37.888-33.792-37.888l-63.488-1.024c329.728-190.464 349.184-196.608 616.448-196.608 20.48 0 175.104-10.24 175.104 31.744 0 20.48-51.2 179.2-81.92 264.192zM2547.712 363.52h-520.192v-118.784c0-23.552 5.12-69.632 14.336-114.688 7.168-35.84 46.080-59.392 81.92-52.224 152.576 30.72 464.896 113.664 464.896 215.040 1.024 34.816-19.456 58.368-40.96 70.656zM495.616 561.152c-128 0-231.424 103.424-231.424 231.424s103.424 231.424 231.424 231.424c128 0 231.424-103.424 231.424-231.424s-103.424-231.424-231.424-231.424zM2589.696 561.152c-128 0-231.424 103.424-231.424 231.424s103.424 231.424 231.424 231.424c128 0 231.424-103.424 231.424-231.424s-103.424-231.424-231.424-231.424z"></path>
</symbol>
<symbol id="cellphone" viewBox="0 0 584 1024">
	<path class="path1" d="M513.024 0h-448.512c-37.888 0-64.512 27.648-64.512 65.536v888.832c0 36.864 26.624 69.632 64.512 69.632h449.536c36.864 0 70.656-31.744 70.656-69.632v-888.832c-1.024-37.888-34.816-65.536-71.68-65.536zM173.056 51.2h231.424c6.144 0 11.264 4.096 11.264 10.24s-5.12 10.24-11.264 10.24h-231.424c-6.144 0-11.264-4.096-11.264-10.24s5.12-10.24 11.264-10.24zM288.768 992.256c-24.576 0-44.032-19.456-44.032-44.032s19.456-44.032 44.032-44.032c24.576 0 44.032 19.456 44.032 44.032s-19.456 44.032-44.032 44.032zM522.24 870.4h-471.040v-757.76h471.040v757.76z"></path>
</symbol>
<symbol id="tests" viewBox="0 0 805 1024">
	<path  class="path1" d="M597.76 391.68c17.92 5.12 37.12 10.24 51.2 24.32 6.4 6.4 11.52 16.64 14.080 26.88 2.56 11.52 2.56 21.76-2.56 33.28l-5.12 11.52c-3.84 10.24-11.52 10.24-24.32 10.24-6.4 0-12.8 0-19.2 0 3.84-7.68 5.12-16.64 5.12-25.6 0-34.56-28.16-61.44-61.44-61.44-34.56 0-61.44 28.16-61.44 61.44 0 8.96 2.56 17.92 5.12 25.6h-206.080c3.84-7.68 5.12-16.64 5.12-25.6 0-34.56-28.16-61.44-61.44-61.44-34.56 0-61.44 28.16-61.44 61.44 0 7.68 1.28 14.080 3.84 20.48l-19.2-2.56c-7.68-1.28-15.36-1.28-21.76-5.12-5.12-2.56-7.68-11.52-8.96-16.64-1.28-7.68-2.56-15.36-3.84-23.040-1.28-15.36 6.4-72.96 23.040-74.24l23.040-2.56c11.52-1.28 14.080-1.28 25.6-7.68 25.6-14.080 44.8-29.44 72.96-33.28 49.92-6.4 134.4-3.84 167.68 6.4 16.64 5.12 35.84 12.8 58.88 24.32 40.96 19.2 56.32 21.76 101.12 33.28v0zM238.080 423.68c26.88 0 48.64 21.76 48.64 48.64s-21.76 48.64-48.64 48.64c-26.88 0-48.64-21.76-48.64-48.64s21.76-48.64 48.64-48.64v0zM555.52 423.68c26.88 0 48.64 21.76 48.64 48.64s-21.76 48.64-48.64 48.64c-26.88 0-48.64-21.76-48.64-48.64s21.76-48.64 48.64-48.64v0z"></path>
	<path class="path2" d="M293.12 0h366.080c80.64 0 145.92 65.28 145.92 145.92v730.88c0 80.64-65.28 145.92-145.92 145.92h-512c-81.92 1.28-147.2-64-147.2-144.64v-622.080c0-83.2 209.92-256 293.12-256zM657.92 72.96h-364.8v72.96c0 72.96-37.12 110.080-110.080 110.080h-110.080v622.080c0 40.96 33.28 72.96 72.96 72.96h512c40.96 0 72.96-33.28 72.96-72.96v-732.16c0-39.68-32-72.96-72.96-72.96zM165.12 602.88h238.080c21.76 0 21.76 55.040 0 55.040h-238.080c-25.6 0-25.6-55.040 0-55.040zM165.12 712.96h238.080c21.76 0 21.76 55.040 0 55.040h-238.080c-25.6 0-25.6-55.040 0-55.040zM165.12 823.040h238.080c21.76 0 21.76 55.040 0 55.040h-238.080c-25.6 0-25.6-55.040 0-55.040zM670.72 682.24c0-49.92-40.96-90.88-90.88-90.88s-90.88 40.96-90.88 90.88c0 29.44 14.080 56.32 37.12 72.96l-23.040 128 76.8-29.44 76.8 29.44-23.040-128c23.040-16.64 37.12-43.52 37.12-72.96z"></path>
</symbol>
<symbol id="carpickup" viewBox="0 0 1175 1024">
	<path class="path1" d="M1162.1 780.121l-117.532-57.297c-8.815-4.407-16.161-10.284-20.568-19.099l-114.594-173.36c-4.407-5.877-10.284-8.815-17.63-8.815h-455.438c-22.037 0-39.667 17.63-39.667 39.667v69.050c0 22.037 17.63 39.667 39.667 39.667h141.039c5.877 0 10.284 4.407 10.284 10.284v20.568c0 5.877-4.407 10.284-10.284 10.284h-255.633c-8.815 0-19.099-2.938-26.445-7.346l-217.435-136.631c-5.877-4.407-13.222-5.877-20.568-4.407-11.753 1.469-19.099 10.284-26.445 19.099-11.753 14.692-29.383 39.667-30.852 45.544-1.469 8.815 1.469 17.63 7.346 24.976l213.027 242.41c4.407 4.407 10.284 7.346 16.161 7.346h630.267c5.877 0 10.284 1.469 14.692 5.877l111.656 108.717c10.284 10.284 29.383 8.815 38.198-2.938l139.57-195.397c8.815-13.222 4.407-30.852-8.815-38.198z"></path>
	<path class="path2" d="M77.865 67.581v304.115c0 36.729 30.852 67.581 67.581 67.581h239.472c36.729 0 67.581-30.852 67.581-67.581v-45.544h61.704c2.938 0 5.877-2.938 5.877-5.877v-23.506h445.154c2.938 0 5.877-2.938 5.877-5.877v-36.729c0-4.407-1.469-7.346-2.938-10.284l-26.445-33.791h-158.669c0 0 0 1.469-1.469 1.469l-13.222 20.568c-5.877 10.284-20.568 10.284-26.445 0l-13.222-20.568c0 0 0-1.469-1.469-1.469h-60.235l-23.506 24.976c-8.815 10.284-24.976 10.284-33.791 0l-24.976-26.445h-30.852v-36.729h358.473l-29.383-39.667c-2.938-2.938-5.877-4.407-10.284-4.407h-352.597v-23.506c0-2.938-2.938-5.877-5.877-5.877h-61.704v-30.852c0-36.729-30.852-67.581-67.581-67.581h-239.472c-36.729 0-67.581 30.852-67.581 67.581zM204.212 108.717c2.938 0 5.877-1.469 7.346-1.469 36.729 0 67.581 49.951 67.581 111.656 0 49.951-19.099 91.088-45.544 105.779-7.346 4.407-14.692 5.877-22.037 5.877-36.729 0-67.581-49.951-67.581-111.656 0-57.297 26.445-104.31 60.235-110.187z"></path>
</symbol>
<symbol id="carwash" viewBox="0 0 1265 1024">
	<path class="path1" d="M787.2 197.12v-40.96h-11.52v-35.84c0-23.040-19.2-43.52-43.52-43.52h-126.72v-76.8h-69.12v78.080h-126.72c-23.040 0-43.52 19.2-43.52 43.52v25.6h78.080c3.84 0 3.84 10.24 0 11.52-29.44 0-58.88 0-88.32 0v40.96h431.36v-2.56zM523.52 289.28c5.12 7.68 7.68 14.080 7.68 21.76 0 16.64-8.96 32-23.040 38.4-12.8 6.4-28.16 6.4-40.96 0-14.080-7.68-24.32-21.76-24.32-39.68 0-7.68 2.56-14.080 7.68-21.76 8.96-14.080 20.48-28.16 30.72-42.24 5.12-7.68 6.4-7.68 11.52 0 10.24 15.36 21.76 29.44 30.72 43.52v0zM688.64 289.28c5.12 7.68 7.68 14.080 7.68 21.76 0 16.64-8.96 32-23.040 38.4-12.8 6.4-28.16 6.4-40.96 0-14.080-7.68-24.32-21.76-24.32-39.68 0-7.68 2.56-14.080 7.68-21.76 8.96-14.080 20.48-28.16 30.72-42.24 5.12-7.68 6.4-7.68 11.52 0 10.24 15.36 21.76 29.44 30.72 43.52v0zM771.84 413.44c5.12 7.68 7.68 14.080 7.68 21.76 0 16.64-8.96 32-23.040 38.4-12.8 6.4-28.16 6.4-40.96 0-14.080-6.4-24.32-21.76-24.32-38.4 0-7.68 2.56-14.080 7.68-21.76 8.96-14.080 20.48-28.16 30.72-42.24 5.12-7.68 6.4-7.68 11.52 0 10.24 14.080 21.76 28.16 30.72 42.24v0zM608 413.44c5.12 7.68 7.68 14.080 7.68 21.76 0 16.64-8.96 32-23.040 38.4-12.8 6.4-28.16 6.4-40.96 0-14.080-7.68-24.32-21.76-24.32-39.68 0-7.68 2.56-14.080 7.68-21.76 8.96-14.080 20.48-28.16 30.72-42.24 5.12-7.68 6.4-7.68 11.52 0 8.96 15.36 21.76 29.44 30.72 43.52v0zM442.88 413.44c5.12 7.68 7.68 14.080 7.68 21.76 0 16.64-8.96 32-23.040 38.4-12.8 6.4-28.16 6.4-40.96 0-14.080-7.68-24.32-21.76-24.32-39.68 0-7.68 2.56-14.080 7.68-21.76 8.96-14.080 20.48-28.16 30.72-42.24 5.12-7.68 6.4-7.68 11.52 0 10.24 15.36 21.76 29.44 30.72 43.52v0zM1107.2 721.92c42.24 12.8 88.32 25.6 120.32 57.6 15.36 15.36 26.88 38.4 33.28 64s5.12 52.48-6.4 76.8l-12.8 28.16c-10.24 23.040-28.16 23.040-55.040 24.32-15.36 0-30.72 0-46.080 0 8.96-17.92 12.8-38.4 12.8-60.16 0-79.36-65.28-144.64-144.64-144.64s-144.64 65.28-144.64 144.64c0 21.76 5.12 42.24 12.8 60.16h-482.56c8.96-17.92 12.8-38.4 12.8-60.16 0-79.36-65.28-144.64-144.64-144.64s-144.64 65.28-144.64 144.64c0 16.64 2.56 33.28 7.68 48.64l-44.8-5.12c-16.64-2.56-34.56-3.84-51.2-11.52-12.8-6.4-17.92-25.6-21.76-38.4-5.12-17.92-7.68-37.12-8.96-56.32-2.56-39.68 17.92-171.52 57.6-176.64l55.040-6.4c25.6-2.56 34.56-3.84 58.88-17.92 58.88-32 106.24-67.84 172.8-78.080 116.48-16.64 314.88-8.96 392.96 14.080 39.68 11.52 84.48 29.44 138.24 56.32 92.16 47.36 129.28 53.76 232.96 80.64v0zM263.68 797.44c62.72 0 112.64 51.2 112.64 113.92s-51.2 112.64-112.64 112.64c-62.72 0-112.64-51.2-112.64-112.64-1.28-62.72 49.92-113.92 112.64-113.92v0zM1009.92 797.44c62.72 0 113.92 51.2 113.92 113.92s-51.2 112.64-113.92 112.64c-62.72 0-113.92-51.2-113.92-112.64 0-62.72 51.2-113.92 113.92-113.92v0z"></path>
</symbol>
<symbol id="towing" viewBox="0 0 2526 1024">
	<path  class="path1" d="M2524.632 794.947c3.368-35.368 3.368-99.368-8.421-107.789l-8.421-6.737c-5.053-5.053-8.421-13.474-10.105-23.579-5.053-43.789-6.737-96-11.789-121.263-8.421-43.789-16.842-52.211-40.421-70.737l-85.895-53.895c-10.105-6.737-18.526-13.474-26.947-20.211l-218.947-200.421c-30.316-28.632-48.842-52.211-126.316-53.895-79.158-1.684-195.368-1.684-281.263-1.684v749.474h257.684c0-104.421 84.211-188.632 188.632-188.632s188.632 84.211 188.632 188.632l60.632-1.684c32-3.368 77.474-16.842 104.421-35.368 15.158-16.842 16.842-26.947 18.526-52.211v0zM1675.789 695.579h-973.474c85.895 16.842 151.579 92.632 151.579 185.263h823.579v-185.263h-1.684zM289.684 879.158c1.684 0 3.368 0 5.053 0h183.579c0-90.947 65.684-166.737 151.579-185.263h-340.211v185.263zM2154.105 704c-87.579 0-160 72.421-160 160s72.421 160 160 160c87.579 0 160-72.421 160-160s-72.421-160-160-160v0zM2154.105 774.737c48.842 0 89.263 40.421 89.263 89.263s-40.421 89.263-89.263 89.263c-48.842 0-89.263-40.421-89.263-89.263s38.737-89.263 89.263-89.263v0zM665.263 704c-87.579 0-160 72.421-160 160s72.421 160 160 160c87.579 0 160-72.421 160-160s-72.421-160-160-160v0zM665.263 774.737c48.842 0 89.263 40.421 89.263 89.263s-40.421 89.263-89.263 89.263c-48.842 0-89.263-40.421-89.263-89.263s40.421-89.263 89.263-89.263v0zM2112 225.684l141.474 139.789c25.263 23.579 15.158 45.474-18.526 45.474h-377.263c-13.474 0-26.947-11.789-28.632-25.263l-8.421-185.263c0-6.737 5.053-13.474 11.789-13.474l213.895 3.368c32 0 45.474 15.158 65.684 35.368v0zM2467.368 505.263c3.368 10.105 5.053 21.895 6.737 30.316 1.684 11.789 3.368 25.263 5.053 38.737 1.684 8.421 1.684 18.526 3.368 26.947 0 3.368 0 5.053-5.053 5.053h-26.947c-8.421 0-6.737 1.684-13.474-5.053-5.053-5.053-11.789-11.789-16.842-16.842-6.737-6.737-5.053-3.368-6.737-13.474l-8.421-70.737c0-5.053 3.368-8.421 6.737-8.421l45.474 5.053c5.053 1.684 6.737 1.684 10.105 8.421v0zM1542.737 0h133.053c0 224 0 446.316 0 670.316h-1416.421l-259.368 89.263v-114.526l259.368-89.263h912.842l104.421-48.842h180.211l38.737-458.105c1.684-32 20.211-45.474 47.158-48.842v0zM1766.737 112.842h173.474v-8.421c-5.053-32-6.737-70.737-50.526-70.737h-101.053c-18.526 0-20.211 11.789-21.895 25.263l-8.421 45.474-1.684 6.737h10.105v1.684z"></path>
	<path  class="path2" d="M1052.632 185.263c6.737 1.684 15.158 3.368 21.895 5.053 74.105 13.474 109.474 20.211 149.895 32 43.789 13.474 90.947 25.263 124.632 58.947 15.158 15.158 26.947 40.421 33.684 65.684 1.684 3.368 1.684 11.789 3.368 21.895 1.684 20.211 0 33.684-10.105 57.263l-11.789 28.632c-10.105 23.579-28.632 23.579-57.263 25.263-18.526 0-37.053 0-55.579-1.684-1.684 0-5.053 0-8.421 0 10.105-18.526 16.842-40.421 16.842-64 0-75.789-60.632-136.421-136.421-136.421s-136.421 60.632-136.421 136.421c0 23.579 5.053 45.474 16.842 64h-550.737c10.105-18.526 16.842-40.421 16.842-64 0-75.789-60.632-136.421-136.421-136.421s-136.421 60.632-136.421 136.421c0 18.526 3.368 37.053 11.789 53.895l-62.316-6.737c-18.526-1.684-35.368-3.368-52.211-11.789-13.474-6.737-18.526-26.947-21.895-40.421-5.053-18.526-8.421-38.737-10.105-57.263-1.684-21.895-6.737-64 3.368-84.211 13.474-28.632 16.842 0 26.947-52.211 10.105-53.895 15.158-48.842 101.053-79.158 20.211-6.737 42.105-13.474 62.316-20.211 45.474-13.474 89.263-25.263 134.737-37.053 26.947-6.737 55.579-13.474 82.526-18.526 11.789-1.684 23.579-3.368 37.053-5.053 26.947-3.368 53.895-5.053 80.842-6.737 43.789-1.684 87.579 0 129.684 3.368 21.895 1.684 48.842 6.737 70.737 15.158v0c21.895 6.737 42.105 15.158 62.316 25.263 32 15.158 64 30.316 96 47.158 21.895 11.789 43.789 21.895 65.684 33.684 13.474 6.737 21.895 10.105 37.053 11.789v0zM333.474 299.789v0c-64 0-116.211 52.211-116.211 116.211s52.211 116.211 116.211 116.211c64 0 116.211-52.211 116.211-116.211s-52.211-116.211-116.211-116.211zM333.474 346.947c38.737 0 69.053 30.316 69.053 69.053s-30.316 69.053-69.053 69.053c-38.737 0-69.053-30.316-69.053-69.053 0-37.053 30.316-69.053 69.053-69.053v0zM1123.368 299.789v0c-64 0-116.211 52.211-116.211 116.211s52.211 116.211 116.211 116.211c64 0 116.211-52.211 116.211-116.211s-52.211-116.211-116.211-116.211zM1123.368 346.947c38.737 0 69.053 30.316 69.053 69.053s-30.316 69.053-69.053 69.053c-38.737 0-69.053-30.316-69.053-69.053 0-37.053 30.316-69.053 69.053-69.053v0zM907.789 146.526c-15.158-8.421-32-16.842-47.158-23.579-16.842-6.737-32-15.158-47.158-20.211-104.421-40.421-262.737-33.684-365.474-6.737-21.895 5.053-45.474 11.789-62.316 16.842s-25.263 8.421-32 10.105c-5.053 1.684-8.421 3.368-10.105 5.053s-1.684 1.684-3.368 3.368c0 1.684 0 1.684 0 3.368s1.684 1.684 3.368 3.368c28.632 23.579 85.895 25.263 121.263 30.316 28.632 3.368 64 6.737 124.632 11.789s163.368 10.105 213.895 13.474c50.526 3.368 64 5.053 77.474 5.053 13.474 1.684 25.263 1.684 38.737 1.684s30.316 1.684 40.421 1.684c5.053 0 25.263 1.684 18.526-8.421-1.684-1.684-3.368-3.368-11.789-8.421s-21.895-15.158-37.053-25.263l-21.895-13.474z"></path>
</symbol>
</defs>
</svg>
